<svg width="279.97252197265624px" height="161.0150146484375px" xmlns="http://www.w3.org/2000/svg" viewBox="110.01373901367188 -5.50750732421875 279.97252197265624 161.0150146484375" style="background: rgba(255, 176, 30,0);" preserveAspectRatio="xMidYMid"><defs><linearGradient id="editing-gradient-gradient" x1="0" x2="1" y1="0.5" y2="0.5" gradientUnits="objectBoundingBox"><stop offset="0" stop-color="#ffeb78"></stop><stop offset="1" stop-color="#ffffff"></stop></linearGradient></defs><g><g transform="translate(155.40999698638916, 107.5099983215332)"><path d="M12.38 1.07L12.38 1.07Q10.82 1.07 10.82-0.74L10.82-0.74L10.82-1.72L10.82-1.72Q10.91-2.05 10.91-2.54L10.91-2.54L10.91-2.95L9.43-12.87L9.43-12.87Q8.86-15.99 8.69-17.38L8.69-17.38L8.69-17.38Q7.95-23.12 7.13-30.18L7.13-30.18L7.13-30.18Q6.48-35.75 4.84-48.54L4.84-48.54L4.59-50.43L4.59-50.43Q3.36-59.70 2.79-60.60L2.79-60.60L2.79-60.60Q3.03-61.01 3.53-61.34L3.53-61.34L3.53-61.34Q4.02-61.66 4.51-61.66L4.51-61.66L4.51-61.66Q5.74-61.66 6.19-61.25L6.19-61.25L6.19-61.25Q6.64-60.84 6.64-59.78L6.64-59.78L6.64-59.04L6.64-58.22L6.64-57.32L6.64-57.32Q9.18-30.50 11.97-7.13L11.97-7.13L12.14-7.13L12.14-7.13Q12.38-9.51 13.12-20.17L13.12-20.17L13.28-22.55L13.28-22.55Q13.86-32.96 13.94-33.54L13.94-33.54L13.94-33.54Q14.19-36.00 14.92-40.75L14.92-40.75L15.91-47.40L16.15-51.17L16.15-51.17Q16.24-52.15 16.28-52.85L16.28-52.85L16.28-52.85Q16.32-53.55 16.40-53.87L16.40-53.87L16.48-54.94L16.48-54.94Q16.48-55.02 16.61-55.19L16.61-55.19L16.61-55.19Q16.73-55.35 16.97-55.51L16.97-55.51L16.97-55.51Q18.12-55.51 18.45-54.94L18.45-54.94L18.45-54.94Q18.70-54.69 18.78-54.41L18.78-54.41L18.78-54.41Q18.86-54.12 18.86-53.71L18.86-53.71L18.86-53.71Q19.02-52.97 19.02-52.97L19.02-52.97L19.02-52.97Q19.84-48.63 22.55-30.34L22.55-30.34L22.55-30.34Q25.26-12.05 25.83-6.23L25.83-6.23L26.08-6.07L29.11-39.28L29.11-39.28Q29.27-42.39 30.18-49.12L30.18-49.12L30.18-49.12Q31.00-55.92 31.00-60.19L31.00-60.19L30.91-61.01L30.91-61.75L30.91-61.75Q30.91-62.81 31.41-63.26L31.41-63.26L31.41-63.26Q31.90-63.71 33.05-63.71L33.05-63.71L33.05-63.71Q33.54-63.71 34.07-63.30L34.07-63.30L34.07-63.30Q34.60-62.89 34.60-62.40L34.60-62.40L34.60-62.40Q34.60-61.58 33.70-60.84L33.70-60.84L33.70-60.84Q33.78-60.76 33.78-60.35L33.78-60.35L33.78-60.35Q33.78-59.86 33.66-59.33L33.66-59.33L33.66-59.33Q33.54-58.79 33.46-58.55L33.46-58.55L33.46-58.55Q32.55-51.17 31.24-36.82L31.24-36.82L29.60-19.84L28.95-13.37L27.96-5.08L27.55-0.90L27.55-0.90Q27.55 0.08 27.27 0.57L27.27 0.57L27.27 0.57Q26.98 1.07 26.08 1.07L26.08 1.07L26.08 1.07Q24.76 1.07 24.52 0.08L24.52 0.08L24.52 0.08Q24.35-0.41 24.19-2.21L24.19-2.21L24.11-3.44L24.11-3.44Q22.14-16.07 18.20-48.38L18.20-48.38L17.96-48.54L17.88-48.46L17.88-48.38L13.78-3.61L13.78-2.13L13.78-2.13Q13.78 1.07 12.38 1.07L12.38 1.07ZM47.15 0.49L47.15 0.49Q45.18 0.49 44.40 0.12L44.40 0.12L44.40 0.12Q43.62-0.25 43.62-1.31L43.62-1.31L43.62-2.87L43.62-2.87Q43.54-3.53 43.54-4.35L43.54-4.35L43.54-4.51L43.62-16.48L43.54-50.35L43.54-50.35Q43.54-55.60 43.38-59.45L43.38-59.45L43.38-59.45Q43.38-60.43 43.79-61.09L43.79-61.09L43.79-61.09Q44.20-61.75 44.85-61.75L44.85-61.75L49.94-61.75L49.94-61.75Q51.09-61.75 51.66-61.58L51.66-61.58L51.66-61.58Q52.48-61.34 52.48-60.19L52.48-60.19L52.48-60.19Q52.48-59.53 51.99-59.12L51.99-59.12L51.99-59.12Q51.50-58.71 50.92-58.63L50.92-58.63L49.53-58.63L48.22-58.71L46.90-58.79L46.90-58.79Q46.33-58.79 46.13-58.59L46.13-58.59L46.13-58.59Q45.92-58.38 45.92-57.81L45.92-57.81L45.92-57.81Q45.92-53.96 46.00-50.84L46.00-50.84L46.00-43.87L46.00-33.62L46.00-33.62Q46.00-33.46 46.17-33.46L46.17-33.46L46.25-33.46L46.33-33.46L46.33-33.46Q48.38-33.62 50.76-33.62L50.76-33.62L50.76-33.62Q52.07-33.62 52.07-32.47L52.07-32.47L52.07-32.47Q52.07-31.65 51.78-31.37L51.78-31.37L51.78-31.37Q51.50-31.08 50.84-31.08L50.84-31.08L46.17-31.08L46.17-31.08Q45.84-31.08 45.84-30.67L45.84-30.67L46.00-18.53L46.00-18.53Q46.17-12.87 46.17-5.49L46.17-5.49L46.17-2.46L49.69-2.46L53.14-2.46L53.87-2.46L53.87-2.46Q55.35-2.46 55.35-1.39L55.35-1.39L55.35-1.39Q55.35-0.08 54.61 0.16L54.61 0.16L54.61 0.16Q53.63 0.49 50.59 0.49L50.59 0.49L47.15 0.49ZM69.95-0.33L69.95-0.33Q67.98-0.41 64.94-0.41L64.94-0.41L64.94-0.41Q64.37-0.41 63.92-0.82L63.92-0.82L63.92-0.82Q63.47-1.23 63.47-1.72L63.47-1.72L63.47-1.72Q63.47-2.79 64.86-2.79L64.86-2.79L68.06-2.79L68.06-2.79Q68.06-12.22 67.49-26.57L67.49-26.57L67.49-26.57Q67.16-38.05 66.83-44.61L66.83-44.61L66.91-48.79L66.91-54.20L66.91-54.20Q66.91-58.30 66.75-59.45L66.75-59.45L63.88-59.45L63.88-59.45Q63.06-59.45 63.06-60.60L63.06-60.60L63.06-60.60Q63.06-61.34 63.71-61.75L63.71-61.75L63.71-61.75Q64.29-61.99 66.75-61.99L66.75-61.99L69.04-61.99L69.04-61.99Q70.27-61.91 72.16-61.91L72.16-61.91L72.16-61.91Q72.82-61.91 73.23-61.62L73.23-61.62L73.23-61.62Q73.64-61.34 73.64-60.76L73.64-60.76L73.64-60.76Q73.64-60.27 73.39-59.86L73.39-59.86L73.39-59.86Q73.14-59.45 72.65-59.45L72.65-59.45L72.65-59.45Q72.08-59.45 71.67-59.53L71.67-59.53L70.68-59.53L69.86-59.53L69.86-59.53Q69.04-59.53 68.88-59.37L68.88-59.37L68.72-59.04L68.72-59.04Q68.72-52.64 69.78-33.21L69.78-33.21L69.78-33.21Q70.77-15.25 70.77-7.38L70.77-7.38L70.77-5.08L70.77-5.08Q70.68-4.02 70.68-2.87L70.68-2.87L73.64-2.87L73.64-2.87Q75.52-2.87 75.52-1.72L75.52-1.72L75.52-1.72Q75.52-1.23 75.15-0.78L75.15-0.78L75.15-0.78Q74.78-0.33 74.37-0.33L74.37-0.33L69.95-0.33ZM97.42 1.31L97.42 1.31Q91.27 1.31 88.31-7.54L88.31-7.54L88.31-7.54Q85.36-16.40 85.36-35.10L85.36-35.10L85.36-35.10Q85.36-39.11 85.53-42.23L85.53-42.23L85.53-42.23Q85.69-46.00 86.67-50.35L86.67-50.35L86.67-50.35Q87.08-52.56 87.70-54.20L87.70-54.20L87.70-54.20Q88.31-55.84 89.38-57.65L89.38-57.65L89.38-57.65Q91.27-60.93 94.63-62.24L94.63-62.24L94.63-62.24Q96.43-62.89 98.40-62.89L98.40-62.89L98.40-62.89Q100.86-62.89 100.86-61.50L100.86-61.50L100.86-61.50Q100.86-60.52 99.63-60.52L99.63-60.52L99.63-60.52Q99.30-60.52 98.48-60.76L98.48-60.76L97.33-60.93L97.33-60.93Q94.63-60.93 92.66-58.71L92.66-58.71L92.66-58.71Q91.27-57.07 89.95-53.05L89.95-53.05L89.95-53.05Q89.05-49.77 88.72-45.76L88.72-45.76L88.72-45.76Q88.48-43.54 88.23-38.54L88.23-38.54L88.15-33.13L88.15-28.62L88.15-28.62Q88.15-20.66 89.30-14.10L89.30-14.10L89.30-14.10Q90.12-10.00 91.22-7.30L91.22-7.30L91.22-7.30Q92.33-4.59 94.22-2.87L94.22-2.87L94.22-2.87Q96.27-0.98 98.65-0.98L98.65-0.98L98.65-0.98Q102.99-0.98 105.62-5.08L105.62-5.08L105.62-5.08Q105.62-7.30 105.29-10.91L105.29-10.91L105.29-10.91Q105.04-12.71 104.63-14.27L104.63-14.27L104.63-14.27Q104.14-15.66 103.48-15.66L103.48-15.66L101.93-15.50L100.20-15.33L100.20-15.33Q98.32-15.33 98.32-16.73L98.32-16.73L98.32-16.73Q98.32-17.38 100.61-17.96L100.61-17.96L100.61-17.96Q102.91-18.53 104.47-18.53L104.47-18.53L104.47-18.53Q105.78-18.53 106.39-17.59L106.39-17.59L106.39-17.59Q107.01-16.65 107.01-15.09L107.01-15.09L107.01-15.09Q107.01-13.28 107.83-7.79L107.83-7.79L107.83-7.79Q108.65-3.20 108.65-0.49L108.65-0.49L108.65-0.49Q108.65 0.82 107.58 0.82L107.58 0.82L107.58 0.82Q105.62 0.82 105.62-0.98L105.62-0.98L105.70-1.23L105.70-1.39L105.70-1.39Q101.02 1.31 97.42 1.31L97.42 1.31ZM131.53 0.82L131.53 0.82Q130.87 0.82 130.63 0.49L130.63 0.49L130.63 0.49Q130.38 0.16 130.38-0.49L130.38-0.49L130.38-1.48L130.38-1.48Q130.46-1.80 130.46-2.38L130.46-2.38L130.46-2.38Q130.46-13.61 129.64-30.83L129.64-30.83L129.07-30.83L127.51-30.83L125.95-30.83L125.95-30.83Q121.36-30.83 120.21-30.59L120.21-30.59L120.21-30.59Q120.21-24.60 120.87-15.74L120.87-15.74L120.87-15.74Q121.61-5.66 121.61-0.90L121.61-0.90L121.61-0.90Q121.61 0.33 120.70 0.33L120.70 0.33L120.70 0.33Q119.47 0.33 119.47-0.82L119.47-0.82L119.47-0.82Q119.39-4.84 119.11-11.93L119.11-11.93L119.11-11.93Q118.82-19.02 118.57-23.94L118.57-23.94L118.57-23.94Q117.01-43.46 117.01-61.34L117.01-61.34L117.01-61.34Q117.01-62.16 118.08-62.16L118.08-62.16L118.08-62.16Q118.57-62.16 118.86-61.87L118.86-61.87L118.86-61.87Q119.15-61.58 119.06-61.09L119.06-61.09L119.06-55.02L119.06-55.02Q119.06-52.81 119.47-46.66L119.47-46.66L119.64-43.87L119.64-43.87Q119.80-39.28 119.80-38.38L119.80-38.38L119.80-34.36L119.80-34.36Q119.80-32.23 120.21-32.23L120.21-32.23L123.33-32.39L124.97-32.55L124.97-32.55Q129.07-32.88 129.64-32.88L129.64-32.88L129.72-33.05L129.72-33.05Q129.72-36.65 129.31-46.90L129.31-46.90L129.31-46.90Q128.90-57.32 128.90-60.84L128.90-60.84L128.90-60.84Q128.90-61.83 130.05-61.83L130.05-61.83L130.05-61.83Q130.63-61.83 131.04-61.54L131.04-61.54L131.04-61.54Q131.45-61.25 131.45-60.76L131.45-60.76L131.45-60.76Q131.45-44.77 132.02-25.58L132.02-25.58L132.02-25.58Q132.59-6.31 132.59-1.97L132.59-1.97L132.59-0.82L132.59-0.82Q132.59-0.16 132.31 0.33L132.31 0.33L132.31 0.33Q132.02 0.82 131.53 0.82L131.53 0.82ZM152.19 0.49L152.19 0.49Q151.37 0.49 150.96-0.12L150.96-0.12L150.96-0.12Q150.55-0.74 150.55-1.64L150.55-1.64L150.55-8.94L150.55-16.24L150.39-29.36L150.39-29.36Q150.14-38.13 150.14-42.48L150.14-42.48L150.22-44.85L150.22-50.18L150.22-50.18Q150.22-59.04 150.06-59.04L150.06-59.04L140.79-59.04L140.79-59.04Q140.14-59.04 139.61-59.37L139.61-59.37L139.61-59.37Q139.07-59.70 139.07-60.27L139.07-60.27L139.07-60.27Q139.07-60.93 139.32-61.17L139.32-61.17L139.32-61.17Q139.56-61.42 140.63-61.58L140.63-61.58L140.63-61.58Q141.78-61.83 143.91-61.83L143.91-61.83L152.11-61.83L161.13-61.91L161.13-61.91Q162.11-61.91 162.48-61.58L162.48-61.58L162.48-61.58Q162.85-61.25 162.85-60.52L162.85-60.52L162.85-60.52Q162.85-59.29 161.29-59.29L161.29-59.29L157.60-59.29L154.00-59.29L153.26-59.20L153.34-54.45L153.34-48.05L153.34-14.76L153.34-7.95L153.42-1.89L153.42-1.72L153.42-1.72Q153.42-1.07 153.34-0.61L153.34-0.61L153.34-0.61Q153.26-0.16 153.01 0.08L153.01 0.08L153.01 0.08Q152.77 0.49 152.19 0.49L152.19 0.49ZM178.51 0.57L178.51 0.57Q178.19 0.57 177.16 0.16L177.16 0.16L177.16 0.16Q176.14-0.25 175.89-0.49L175.89-0.49L175.89-0.49Q171.87-3.53 170.64-15.74L170.64-15.74L170.64-15.74Q170.07-21.48 169.86-27.14L169.86-27.14L169.86-27.14Q169.66-32.80 169.66-41.49L169.66-41.49L169.66-48.05L169.66-48.05Q169.74-51.00 169.74-54.61L169.74-54.61L169.74-54.61Q169.74-56.66 169.99-58.06L169.99-58.06L169.99-58.06Q170.07-58.96 170.35-59.41L170.35-59.41L170.35-59.41Q170.64-59.86 171.46-60.68L171.46-60.68L171.46-60.68Q172.61-61.75 175.56-61.75L175.56-61.75L175.56-61.75Q182.94-61.75 184.50-48.63L184.50-48.63L184.50-48.63Q186.39-34.69 186.39-19.68L186.39-19.68L186.39-19.68Q186.39-14.68 186.14-11.64L186.14-11.64L186.14-11.64Q185.81-7.87 184.75-4.51L184.75-4.51L184.75-4.51Q184.17-2.79 183.35-1.76L183.35-1.76L183.35-1.76Q182.53-0.74 181.30-0.08L181.30-0.08L181.30-0.08Q179.99 0.57 178.51 0.57L178.51 0.57ZM179.25-1.31L179.25-1.31Q181.47-1.31 182.70-5.17L182.70-5.17L182.70-5.17Q183.84-9.18 184.01-12.87L184.01-12.87L184.01-12.87Q184.25-17.47 184.25-18.94L184.25-18.94L184.25-18.94Q184.25-21.57 183.76-30.42L183.76-30.42L183.76-30.42Q183.27-39.20 183.27-41.66L183.27-41.66L183.27-43.62L183.27-43.62Q183.02-48.54 182.12-51.41L182.12-51.41L182.12-51.41Q181.47-53.96 180.60-55.80L180.60-55.80L180.60-55.80Q179.74-57.65 178.43-58.79L178.43-58.79L178.43-58.79Q176.96-59.94 174.99-59.94L174.99-59.94L174.99-59.94Q173.02-59.94 172.24-58.96L172.24-58.96L172.24-58.96Q171.46-57.97 171.46-55.92L171.46-55.92L171.46-55.92Q171.46-55.19 171.54-54.61L171.54-54.61L171.54-53.22L171.71-45.59L171.87-37.88L171.87-29.85L171.87-29.85Q171.87-25.09 172.36-19.68L172.36-19.68L172.36-19.68Q172.86-12.96 174.50-7.38L174.50-7.38L174.50-7.38Q175.23-4.59 176.50-2.95L176.50-2.95L176.50-2.95Q177.78-1.31 179.25-1.31L179.25-1.31Z" fill="url(#editing-gradient-gradient)"></path></g></g><style>text {
  font-size: 64px;
  font-family: Arial Black;
  dominant-baseline: central;
  text-anchor: middle;
}</style></svg>
