<svg width="279.1351806640625px" height="104.01318359375px" xmlns="http://www.w3.org/2000/svg" viewBox="110.43240966796876 22.993408203125 279.1351806640625 104.01318359375" style="background: rgba(90, 23, 20, 0);" preserveAspectRatio="xMidYMid"><defs><filter id="editing-offset"><feFlood flood-color="#bc2412" flood-opacity="0.5" result="c1"></feFlood><feFlood flood-color="#d56b34" flood-opacity="0.5" result="c2"></feFlood><feFlood flood-color="#6b5b4b" flood-opacity="0.5" result="c3"></feFlood><feComposite operator="in" in="c1" in2="SourceAlpha" result="text-c1"></feComposite><feComposite operator="in" in="c2" in2="SourceAlpha" result="text-c2"></feComposite><feComposite operator="in" in="c3" in2="SourceAlpha" result="text-c3"></feComposite><feOffset in="text-c1" dx="-10" dy="0" result="text1"></feOffset><feOffset in="text-c2" dx="10" dy="0" result="text2"></feOffset><feOffset in="text-c3" dx="0" dy="0" result="text3"></feOffset><feMerge><feMergeNode in="text1"></feMergeNode><feMergeNode in="text2"></feMergeNode><feMergeNode in="text3"></feMergeNode></feMerge></filter></defs><g filter="url(#editing-offset)"><g transform="translate(122.93000078201294, 99.67125129699707)"><path d="M4.86-1.60L4.86-1.60L4.86-45.18L4.86-45.18Q4.86-45.95 5.44-46.37L5.44-46.37L5.44-46.37Q6.02-46.78 6.78-46.78L6.78-46.78L29.44-46.78L29.44-46.78Q30.21-46.78 30.62-46.24L30.62-46.24L30.62-46.24Q31.04-45.70 31.04-44.93L31.04-44.93L31.04-44.93Q31.04-44.10 30.62-43.49L30.62-43.49L30.62-43.49Q30.21-42.88 29.44-42.88L29.44-42.88L9.09-42.88L9.09-25.28L19.20-25.28L19.20-25.28Q19.90-25.28 20.32-24.74L20.32-24.74L20.32-24.74Q20.74-24.19 20.74-23.36L20.74-23.36L20.74-23.36Q20.74-21.63 19.20-21.63L19.20-21.63L9.09-21.63L9.09-1.60L9.09-1.60Q9.09-0.83 8.45-0.42L8.45-0.42L8.45-0.42Q7.81 0 6.98 0L6.98 0L6.98 0Q4.86 0 4.86-1.60ZM34.62-13.31L34.62-13.31L34.62-33.15L34.62-33.15Q34.62-40.19 38.24-43.49L38.24-43.49L38.24-43.49Q41.86-46.78 47.94-46.78L47.94-46.78L47.94-46.78Q54.02-46.78 57.63-43.49L57.63-43.49L57.63-43.49Q61.25-40.19 61.25-33.15L61.25-33.15L61.25-13.31L61.25-13.31Q61.25-6.21 57.63-2.91L57.63-2.91L57.63-2.91Q54.02 0.38 47.94 0.38L47.94 0.38L47.94 0.38Q41.86 0.38 38.24-2.91L38.24-2.91L38.24-2.91Q34.62-6.21 34.62-13.31ZM38.85-33.15L38.85-13.31L38.85-13.31Q38.85-3.52 47.94-3.52L47.94-3.52L47.94-3.52Q57.02-3.52 57.02-13.31L57.02-13.31L57.02-33.15L57.02-33.15Q57.02-42.88 47.94-42.88L47.94-42.88L47.94-42.88Q38.85-42.88 38.85-33.15L38.85-33.15ZM45.63-23.17L45.63-23.17L45.63-23.17Q45.63-24.19 46.30-24.83L46.30-24.83L46.30-24.83Q46.98-25.47 48-25.47L48-25.47L48-25.47Q48.96-25.47 49.63-24.83L49.63-24.83L49.63-24.83Q50.30-24.19 50.30-23.17L50.30-23.17L50.30-23.17Q50.30-22.21 49.63-21.50L49.63-21.50L49.63-21.50Q48.96-20.80 48-20.80L48-20.80L48-20.80Q46.98-20.80 46.30-21.50L46.30-21.50L46.30-21.50Q45.63-22.21 45.63-23.17ZM67.78-11.71L67.78-11.71L67.78-18.69L67.78-18.69Q67.78-23.55 71.36-27.10L71.36-27.10L71.36-27.10Q74.94-30.66 79.87-30.66L79.87-30.66L79.87-30.66Q84.80-30.66 88.45-27.14L88.45-27.14L88.45-27.14Q92.10-23.62 92.10-18.69L92.10-18.69L92.10-11.71L92.10-11.71Q92.10-6.91 88.42-3.23L88.42-3.23L88.42-3.23Q84.74 0.45 79.87 0.45L79.87 0.45L79.87 0.45Q75.07 0.45 71.42-3.23L71.42-3.23L71.42-3.23Q67.78-6.91 67.78-11.71ZM71.94-18.69L71.94-11.71L71.94-11.71Q71.94-8.45 74.27-5.92L74.27-5.92L74.27-5.92Q76.61-3.39 79.87-3.39L79.87-3.39L79.87-3.39Q83.20-3.39 85.57-5.92L85.57-5.92L85.57-5.92Q87.94-8.45 87.94-11.71L87.94-11.71L87.94-18.69L87.94-18.69Q87.94-21.82 85.54-24.32L85.54-24.32L85.54-24.32Q83.14-26.82 79.87-26.82L79.87-26.82L79.87-26.82Q76.61-26.82 74.27-24.32L74.27-24.32L74.27-24.32Q71.94-21.82 71.94-18.69L71.94-18.69ZM98.82-9.41L98.82-9.41L98.82-43.14L98.82-43.14Q98.82-43.78 99.46-44.22L99.46-44.22L99.46-44.22Q100.10-44.67 100.86-44.67L100.86-44.67L100.86-44.67Q101.70-44.67 102.34-44.22L102.34-44.22L102.34-44.22Q102.98-43.78 102.98-43.14L102.98-43.14L102.98-30.27L111.23-30.27L111.23-30.27Q111.87-30.27 112.29-29.76L112.29-29.76L112.29-29.76Q112.70-29.25 112.70-28.54L112.70-28.54L112.70-28.54Q112.70-27.84 112.29-27.33L112.29-27.33L112.29-27.33Q111.87-26.82 111.23-26.82L111.23-26.82L102.98-26.82L102.98-9.41L102.98-9.41Q102.98-6.27 104.29-5.02L104.29-5.02L104.29-5.02Q105.60-3.78 108.93-3.78L108.93-3.78L110.72-3.78L110.72-3.78Q111.55-3.78 112.10-3.23L112.10-3.23L112.10-3.23Q112.64-2.69 112.64-1.92L112.64-1.92L112.64-1.92Q112.64-1.15 112.10-0.58L112.10-0.58L112.10-0.58Q111.55 0 110.72 0L110.72 0L108.93 0L108.93 0Q98.82 0 98.82-9.41ZM117.95-1.66L117.95-1.66L117.95-47.30L117.95-47.30Q117.95-47.94 118.53-48.38L118.53-48.38L118.53-48.38Q119.10-48.83 120-48.83L120-48.83L120-48.83Q120.90-48.83 121.50-48.38L121.50-48.38L121.50-48.38Q122.11-47.94 122.11-47.30L122.11-47.30L122.11-25.79L122.11-25.79Q123.26-27.90 125.47-29.28L125.47-29.28L125.47-29.28Q127.68-30.66 130.62-30.66L130.62-30.66L130.62-30.66Q135.36-30.66 138.72-27.14L138.72-27.14L138.72-27.14Q142.08-23.62 142.08-18.69L142.08-18.69L142.08-11.71L142.08-11.71Q142.08-6.91 138.66-3.23L138.66-3.23L138.66-3.23Q135.23 0.45 130.75 0.45L130.75 0.45L130.75 0.45Q127.87 0.45 125.44-0.99L125.44-0.99L125.44-0.99Q123.01-2.43 121.98-4.48L121.98-4.48L121.98-1.66L121.98-1.66Q121.98-1.02 121.41-0.51L121.41-0.51L121.41-0.51Q120.83 0 120 0L120 0L120 0Q119.17 0 118.56-0.51L118.56-0.51L118.56-0.51Q117.95-1.02 117.95-1.66ZM122.11-18.69L122.11-9.73L122.11-9.73Q122.11-8 124.51-5.70L124.51-5.70L124.51-5.70Q126.91-3.39 129.98-3.39L129.98-3.39L129.98-3.39Q133.18-3.39 135.55-5.95L135.55-5.95L135.55-5.95Q137.92-8.51 137.92-11.71L137.92-11.71L137.92-18.69L137.92-18.69Q137.92-21.82 135.55-24.32L135.55-24.32L135.55-24.32Q133.18-26.82 129.92-26.82L129.92-26.82L129.92-26.82Q126.85-26.82 124.48-24.58L124.48-24.58L124.48-24.58Q122.11-22.34 122.11-18.69L122.11-18.69ZM146.82-8L146.82-8L146.82-8Q146.82-12.93 150.62-14.85L150.62-14.85L150.62-14.85Q154.43-16.77 161.73-16.77L161.73-16.77L164.99-16.77L164.99-18.30L164.99-18.30Q164.99-21.82 163.14-24.42L163.14-24.42L163.14-24.42Q161.28-27.01 157.44-27.01L157.44-27.01L157.44-27.01Q154.88-27.01 152.80-26.08L152.80-26.08L152.80-26.08Q150.72-25.15 150.59-25.15L150.59-25.15L150.59-25.15Q149.82-25.15 149.38-25.86L149.38-25.86L149.38-25.86Q148.93-26.56 148.93-27.39L148.93-27.39L148.93-27.39Q148.93-28.61 151.68-29.63L151.68-29.63L151.68-29.63Q154.43-30.66 157.57-30.66L157.57-30.66L157.57-30.66Q163.58-30.66 166.37-27.17L166.37-27.17L166.37-27.17Q169.15-23.68 169.15-18.30L169.15-18.30L169.15-1.66L169.15-1.66Q169.15-0.96 168.58-0.48L168.58-0.48L168.58-0.48Q168 0 167.10 0L167.10 0L167.10 0Q166.27 0 165.73-0.48L165.73-0.48L165.73-0.48Q165.18-0.96 165.18-1.66L165.18-1.66L165.18-4.48L165.18-4.48Q160.90 0.45 155.52 0.45L155.52 0.45L155.52 0.45Q151.68 0.45 149.25-1.70L149.25-1.70L149.25-1.70Q146.82-3.84 146.82-8ZM150.98-8.38L150.98-8.38L150.98-8.38Q150.98-5.70 152.51-4.38L152.51-4.38L152.51-4.38Q154.05-3.07 156.54-3.07L156.54-3.07L156.54-3.07Q159.55-3.07 162.27-5.31L162.27-5.31L162.27-5.31Q164.99-7.55 164.99-9.79L164.99-9.79L164.99-13.89L162.30-13.89L162.30-13.89Q159.74-13.89 157.98-13.70L157.98-13.70L157.98-13.70Q156.22-13.50 154.50-12.99L154.50-12.99L154.50-12.99Q152.77-12.48 151.87-11.33L151.87-11.33L151.87-11.33Q150.98-10.18 150.98-8.38ZM177.47-1.66L177.47-1.66L177.47-47.30L177.47-47.30Q177.47-47.94 178.05-48.38L178.05-48.38L178.05-48.38Q178.62-48.83 179.52-48.83L179.52-48.83L179.52-48.83Q180.42-48.83 181.02-48.38L181.02-48.38L181.02-48.38Q181.63-47.94 181.63-47.30L181.63-47.30L181.63-1.66L181.63-1.66Q181.63-1.02 181.02-0.51L181.02-0.51L181.02-0.51Q180.42 0 179.52 0L179.52 0L179.52 0Q178.69 0 178.08-0.51L178.08-0.51L178.08-0.51Q177.47-1.02 177.47-1.66ZM190.72-1.66L190.72-1.66L190.72-47.30L190.72-47.30Q190.72-47.94 191.30-48.38L191.30-48.38L191.30-48.38Q191.87-48.83 192.77-48.83L192.77-48.83L192.77-48.83Q193.66-48.83 194.27-48.38L194.27-48.38L194.27-48.38Q194.88-47.94 194.88-47.30L194.88-47.30L194.88-1.66L194.88-1.66Q194.88-1.02 194.27-0.51L194.27-0.51L194.27-0.51Q193.66 0 192.77 0L192.77 0L192.77 0Q191.94 0 191.33-0.51L191.33-0.51L191.33-0.51Q190.72-1.02 190.72-1.66ZM202.30-11.71L202.30-11.71L202.30-18.88L202.30-18.88Q202.30-23.68 205.89-27.17L205.89-27.17L205.89-27.17Q209.47-30.66 214.53-30.66L214.53-30.66L214.53-30.66Q219.39-30.66 222.94-27.33L222.94-27.33L222.94-27.33Q226.50-24 226.50-19.01L226.50-19.01L226.50-19.01Q226.50-17.22 226.08-16.13L226.08-16.13L226.08-16.13Q225.66-15.04 224.74-14.59L224.74-14.59L224.74-14.59Q223.81-14.14 223.04-14.02L223.04-14.02L223.04-14.02Q222.27-13.89 220.93-13.89L220.93-13.89L206.46-13.89L206.46-11.52L206.46-11.52Q206.46-7.74 209.18-5.47L209.18-5.47L209.18-5.47Q211.90-3.20 216.19-3.20L216.19-3.20L216.19-3.20Q218.37-3.20 220-3.84L220-3.84L220-3.84Q221.63-4.48 222.50-5.12L222.50-5.12L222.50-5.12Q223.36-5.76 223.87-5.76L223.87-5.76L223.87-5.76Q224.58-5.76 225.12-5.09L225.12-5.09L225.12-5.09Q225.66-4.42 225.66-3.78L225.66-3.78L225.66-3.78Q225.66-2.43 222.91-0.99L222.91-0.99L222.91-0.99Q220.16 0.45 216.06 0.45L216.06 0.45L216.06 0.45Q209.98 0.45 206.14-2.91L206.14-2.91L206.14-2.91Q202.30-6.27 202.30-11.71ZM206.46-19.39L206.46-16.96L219.26-16.96L219.26-16.96Q221.18-16.96 221.82-17.38L221.82-17.38L221.82-17.38Q222.46-17.79 222.46-19.14L222.46-19.14L222.46-19.14Q222.46-22.34 220.19-24.77L220.19-24.77L220.19-24.77Q217.92-27.20 214.46-27.20L214.46-27.20L214.46-27.20Q211.14-27.20 208.80-24.90L208.80-24.90L208.80-24.90Q206.46-22.59 206.46-19.39L206.46-19.39ZM232.77-1.66L232.77-1.66L232.77-28.74L232.77-28.74Q232.77-29.38 233.34-29.82L233.34-29.82L233.34-29.82Q233.92-30.27 234.82-30.27L234.82-30.27L234.82-30.27Q235.65-30.27 236.22-29.82L236.22-29.82L236.22-29.82Q236.80-29.38 236.80-28.74L236.80-28.74L236.80-25.60L236.80-25.60Q237.95-27.71 240.19-29.18L240.19-29.18L240.19-29.18Q242.43-30.66 245.38-30.66L245.38-30.66L247.62-30.66L247.62-30.66Q248.26-30.66 248.77-30.08L248.77-30.08L248.77-30.08Q249.28-29.50 249.28-28.74L249.28-28.74L249.28-28.74Q249.28-27.97 248.77-27.39L248.77-27.39L248.77-27.39Q248.26-26.82 247.62-26.82L247.62-26.82L245.38-26.82L245.38-26.82Q242.05-26.82 239.49-24.22L239.49-24.22L239.49-24.22Q236.93-21.63 236.93-17.47L236.93-17.47L236.93-1.66L236.93-1.66Q236.93-1.02 236.32-0.51L236.32-0.51L236.32-0.51Q235.71 0 234.82 0L234.82 0L234.82 0Q233.98 0 233.38-0.51L233.38-0.51L233.38-0.51Q232.77-1.02 232.77-1.66Z"></path></g></g><style>text {
  font-size: 64px;
  font-family: Arial Black;
  dominant-baseline: central;
  text-anchor: middle;
}</style></svg>