<svg width="352.132373046875px" height="104.01318359375px" xmlns="http://www.w3.org/2000/svg" viewBox="73.9338134765625 22.993408203125 352.132373046875 104.01318359375" style="background: rgba(73, 18, 18, 0);" preserveAspectRatio="xMidYMid"><defs><filter id="editing-offset"><feFlood flood-color="#831a19" flood-opacity="0.5" result="c1"></feFlood><feFlood flood-color="#c24229" flood-opacity="0.5" result="c2"></feFlood><feFlood flood-color="#dd8437" flood-opacity="0.5" result="c3"></feFlood><feComposite operator="in" in="c1" in2="SourceAlpha" result="text-c1"></feComposite><feComposite operator="in" in="c2" in2="SourceAlpha" result="text-c2"></feComposite><feComposite operator="in" in="c3" in2="SourceAlpha" result="text-c3"></feComposite><feOffset in="text-c1" dx="-10" dy="0" result="text1"></feOffset><feOffset in="text-c2" dx="10" dy="0" result="text2"></feOffset><feOffset in="text-c3" dx="0" dy="0" result="text3"></feOffset><feMerge><feMergeNode in="text1"></feMergeNode><feMergeNode in="text2"></feMergeNode><feMergeNode in="text3"></feMergeNode></feMerge></filter></defs><g filter="url(#editing-offset)"><g transform="translate(88.14500284194946, 106.87125015258789)"><path d="M4.03-1.66L4.03-1.66L4.03-47.30L4.03-47.30Q4.03-47.94 4.61-48.38L4.61-48.38L4.61-48.38Q5.18-48.83 6.08-48.83L6.08-48.83L6.08-48.83Q6.98-48.83 7.58-48.38L7.58-48.38L7.58-48.38Q8.19-47.94 8.19-47.30L8.19-47.30L8.19-25.79L8.19-25.79Q9.34-27.90 11.55-29.28L11.55-29.28L11.55-29.28Q13.76-30.66 16.70-30.66L16.70-30.66L16.70-30.66Q21.44-30.66 24.80-27.14L24.80-27.14L24.80-27.14Q28.16-23.62 28.16-18.69L28.16-18.69L28.16-11.71L28.16-11.71Q28.16-6.91 24.74-3.23L24.74-3.23L24.74-3.23Q21.31 0.45 16.83 0.45L16.83 0.45L16.83 0.45Q13.95 0.45 11.52-0.99L11.52-0.99L11.52-0.99Q9.09-2.43 8.06-4.48L8.06-4.48L8.06-1.66L8.06-1.66Q8.06-1.02 7.49-0.51L7.49-0.51L7.49-0.51Q6.91 0 6.08 0L6.08 0L6.08 0Q5.25 0 4.64-0.51L4.64-0.51L4.64-0.51Q4.03-1.02 4.03-1.66ZM8.19-18.69L8.19-9.73L8.19-9.73Q8.19-8 10.59-5.70L10.59-5.70L10.59-5.70Q12.99-3.39 16.06-3.39L16.06-3.39L16.06-3.39Q19.26-3.39 21.63-5.95L21.63-5.95L21.63-5.95Q24-8.51 24-11.71L24-11.71L24-18.69L24-18.69Q24-21.82 21.63-24.32L21.63-24.32L21.63-24.32Q19.26-26.82 16-26.82L16-26.82L16-26.82Q12.93-26.82 10.56-24.58L10.56-24.58L10.56-24.58Q8.19-22.34 8.19-18.69L8.19-18.69ZM31.62-28.67L31.62-28.67L31.62-28.67Q31.62-29.44 32.45-30.05L32.45-30.05L32.45-30.05Q33.28-30.66 34.18-30.66L34.18-30.66L34.18-30.66Q35.39-30.66 35.65-29.76L35.65-29.76L44.42-6.21L52.67-29.76L52.67-29.76Q53.06-30.66 54.08-30.66L54.08-30.66L54.08-30.66Q54.91-30.66 55.78-30.05L55.78-30.05L55.78-30.05Q56.64-29.44 56.64-28.61L56.64-28.61L56.64-28.61Q56.64-28.22 56.51-28.10L56.51-28.10L46.59-1.22L45.44 1.92L45.44 1.92Q45.12 2.75 44.19 4.93L44.19 4.93L44.19 4.93Q43.26 7.10 42.62 8.06L42.62 8.06L40.96 10.62L40.96 10.62Q39.87 12.22 38.88 12.93L38.88 12.93L38.88 12.93Q37.89 13.63 36.48 14.24L36.48 14.24L36.48 14.24Q35.07 14.85 33.60 14.85L33.60 14.85L33.60 14.85Q31.68 14.85 31.68 12.99L31.68 12.99L31.68 12.99Q31.68 11.07 32.96 11.07L32.96 11.07L32.96 11.07Q35.90 11.07 38.43 7.52L38.43 7.52L38.43 7.52Q40.96 3.97 42.24-1.28L42.24-1.28L31.81-28.10L31.81-28.10Q31.62-28.42 31.62-28.67ZM75.26-1.60L75.26-1.60L75.26-45.18L75.26-45.18Q75.26-45.95 75.84-46.37L75.84-46.37L75.84-46.37Q76.42-46.78 77.18-46.78L77.18-46.78L99.84-46.78L99.84-46.78Q100.61-46.78 101.02-46.24L101.02-46.24L101.02-46.24Q101.44-45.70 101.44-44.93L101.44-44.93L101.44-44.93Q101.44-44.10 101.02-43.49L101.02-43.49L101.02-43.49Q100.61-42.88 99.84-42.88L99.84-42.88L79.49-42.88L79.49-25.28L89.60-25.28L89.60-25.28Q90.30-25.28 90.72-24.74L90.72-24.74L90.72-24.74Q91.14-24.19 91.14-23.36L91.14-23.36L91.14-23.36Q91.14-21.63 89.60-21.63L89.60-21.63L79.49-21.63L79.49-1.60L79.49-1.60Q79.49-0.83 78.85-0.42L78.85-0.42L78.85-0.42Q78.21 0 77.38 0L77.38 0L77.38 0Q75.26 0 75.26-1.60ZM105.02-13.31L105.02-13.31L105.02-33.15L105.02-33.15Q105.02-40.19 108.64-43.49L108.64-43.49L108.64-43.49Q112.26-46.78 118.34-46.78L118.34-46.78L118.34-46.78Q124.42-46.78 128.03-43.49L128.03-43.49L128.03-43.49Q131.65-40.19 131.65-33.15L131.65-33.15L131.65-13.31L131.65-13.31Q131.65-6.21 128.03-2.91L128.03-2.91L128.03-2.91Q124.42 0.38 118.34 0.38L118.34 0.38L118.34 0.38Q112.26 0.38 108.64-2.91L108.64-2.91L108.64-2.91Q105.02-6.21 105.02-13.31ZM109.25-33.15L109.25-13.31L109.25-13.31Q109.25-3.52 118.34-3.52L118.34-3.52L118.34-3.52Q127.42-3.52 127.42-13.31L127.42-13.31L127.42-33.15L127.42-33.15Q127.42-42.88 118.34-42.88L118.34-42.88L118.34-42.88Q109.25-42.88 109.25-33.15L109.25-33.15ZM116.03-23.17L116.03-23.17L116.03-23.17Q116.03-24.19 116.70-24.83L116.70-24.83L116.70-24.83Q117.38-25.47 118.40-25.47L118.40-25.47L118.40-25.47Q119.36-25.47 120.03-24.83L120.03-24.83L120.03-24.83Q120.70-24.19 120.70-23.17L120.70-23.17L120.70-23.17Q120.70-22.21 120.03-21.50L120.03-21.50L120.03-21.50Q119.36-20.80 118.40-20.80L118.40-20.80L118.40-20.80Q117.38-20.80 116.70-21.50L116.70-21.50L116.70-21.50Q116.03-22.21 116.03-23.17ZM138.18-11.71L138.18-11.71L138.18-18.69L138.18-18.69Q138.18-23.55 141.76-27.10L141.76-27.10L141.76-27.10Q145.34-30.66 150.27-30.66L150.27-30.66L150.27-30.66Q155.20-30.66 158.85-27.14L158.85-27.14L158.85-27.14Q162.50-23.62 162.50-18.69L162.50-18.69L162.50-11.71L162.50-11.71Q162.50-6.91 158.82-3.23L158.82-3.23L158.82-3.23Q155.14 0.45 150.27 0.45L150.27 0.45L150.27 0.45Q145.47 0.45 141.82-3.23L141.82-3.23L141.82-3.23Q138.18-6.91 138.18-11.71ZM142.34-18.69L142.34-11.71L142.34-11.71Q142.34-8.45 144.67-5.92L144.67-5.92L144.67-5.92Q147.01-3.39 150.27-3.39L150.27-3.39L150.27-3.39Q153.60-3.39 155.97-5.92L155.97-5.92L155.97-5.92Q158.34-8.45 158.34-11.71L158.34-11.71L158.34-18.69L158.34-18.69Q158.34-21.82 155.94-24.32L155.94-24.32L155.94-24.32Q153.54-26.82 150.27-26.82L150.27-26.82L150.27-26.82Q147.01-26.82 144.67-24.32L144.67-24.32L144.67-24.32Q142.34-21.82 142.34-18.69L142.34-18.69ZM169.22-9.41L169.22-9.41L169.22-43.14L169.22-43.14Q169.22-43.78 169.86-44.22L169.86-44.22L169.86-44.22Q170.50-44.67 171.26-44.67L171.26-44.67L171.26-44.67Q172.10-44.67 172.74-44.22L172.74-44.22L172.74-44.22Q173.38-43.78 173.38-43.14L173.38-43.14L173.38-30.27L181.63-30.27L181.63-30.27Q182.27-30.27 182.69-29.76L182.69-29.76L182.69-29.76Q183.10-29.25 183.10-28.54L183.10-28.54L183.10-28.54Q183.10-27.84 182.69-27.33L182.69-27.33L182.69-27.33Q182.27-26.82 181.63-26.82L181.63-26.82L173.38-26.82L173.38-9.41L173.38-9.41Q173.38-6.27 174.69-5.02L174.69-5.02L174.69-5.02Q176-3.78 179.33-3.78L179.33-3.78L181.12-3.78L181.12-3.78Q181.95-3.78 182.50-3.23L182.50-3.23L182.50-3.23Q183.04-2.69 183.04-1.92L183.04-1.92L183.04-1.92Q183.04-1.15 182.50-0.58L182.50-0.58L182.50-0.58Q181.95 0 181.12 0L181.12 0L179.33 0L179.33 0Q169.22 0 169.22-9.41ZM188.35-1.66L188.35-1.66L188.35-47.30L188.35-47.30Q188.35-47.94 188.93-48.38L188.93-48.38L188.93-48.38Q189.50-48.83 190.40-48.83L190.40-48.83L190.40-48.83Q191.30-48.83 191.90-48.38L191.90-48.38L191.90-48.38Q192.51-47.94 192.51-47.30L192.51-47.30L192.51-25.79L192.51-25.79Q193.66-27.90 195.87-29.28L195.87-29.28L195.87-29.28Q198.08-30.66 201.02-30.66L201.02-30.66L201.02-30.66Q205.76-30.66 209.12-27.14L209.12-27.14L209.12-27.14Q212.48-23.62 212.48-18.69L212.48-18.69L212.48-11.71L212.48-11.71Q212.48-6.91 209.06-3.23L209.06-3.23L209.06-3.23Q205.63 0.45 201.15 0.45L201.15 0.45L201.15 0.45Q198.27 0.45 195.84-0.99L195.84-0.99L195.84-0.99Q193.41-2.43 192.38-4.48L192.38-4.48L192.38-1.66L192.38-1.66Q192.38-1.02 191.81-0.51L191.81-0.51L191.81-0.51Q191.23 0 190.40 0L190.40 0L190.40 0Q189.57 0 188.96-0.51L188.96-0.51L188.96-0.51Q188.35-1.02 188.35-1.66ZM192.51-18.69L192.51-9.73L192.51-9.73Q192.51-8 194.91-5.70L194.91-5.70L194.91-5.70Q197.31-3.39 200.38-3.39L200.38-3.39L200.38-3.39Q203.58-3.39 205.95-5.95L205.95-5.95L205.95-5.95Q208.32-8.51 208.32-11.71L208.32-11.71L208.32-18.69L208.32-18.69Q208.32-21.82 205.95-24.32L205.95-24.32L205.95-24.32Q203.58-26.82 200.32-26.82L200.32-26.82L200.32-26.82Q197.25-26.82 194.88-24.58L194.88-24.58L194.88-24.58Q192.51-22.34 192.51-18.69L192.51-18.69ZM217.22-8L217.22-8L217.22-8Q217.22-12.93 221.02-14.85L221.02-14.85L221.02-14.85Q224.83-16.77 232.13-16.77L232.13-16.77L235.39-16.77L235.39-18.30L235.39-18.30Q235.39-21.82 233.54-24.42L233.54-24.42L233.54-24.42Q231.68-27.01 227.84-27.01L227.84-27.01L227.84-27.01Q225.28-27.01 223.20-26.08L223.20-26.08L223.20-26.08Q221.12-25.15 220.99-25.15L220.99-25.15L220.99-25.15Q220.22-25.15 219.78-25.86L219.78-25.86L219.78-25.86Q219.33-26.56 219.33-27.39L219.33-27.39L219.33-27.39Q219.33-28.61 222.08-29.63L222.08-29.63L222.08-29.63Q224.83-30.66 227.97-30.66L227.97-30.66L227.97-30.66Q233.98-30.66 236.77-27.17L236.77-27.17L236.77-27.17Q239.55-23.68 239.55-18.30L239.55-18.30L239.55-1.66L239.55-1.66Q239.55-0.96 238.98-0.48L238.98-0.48L238.98-0.48Q238.40 0 237.50 0L237.50 0L237.50 0Q236.67 0 236.13-0.48L236.13-0.48L236.13-0.48Q235.58-0.96 235.58-1.66L235.58-1.66L235.58-4.48L235.58-4.48Q231.30 0.45 225.92 0.45L225.92 0.45L225.92 0.45Q222.08 0.45 219.65-1.70L219.65-1.70L219.65-1.70Q217.22-3.84 217.22-8ZM221.38-8.38L221.38-8.38L221.38-8.38Q221.38-5.70 222.91-4.38L222.91-4.38L222.91-4.38Q224.45-3.07 226.94-3.07L226.94-3.07L226.94-3.07Q229.95-3.07 232.67-5.31L232.67-5.31L232.67-5.31Q235.39-7.55 235.39-9.79L235.39-9.79L235.39-13.89L232.70-13.89L232.70-13.89Q230.14-13.89 228.38-13.70L228.38-13.70L228.38-13.70Q226.62-13.50 224.90-12.99L224.90-12.99L224.90-12.99Q223.17-12.48 222.27-11.33L222.27-11.33L222.27-11.33Q221.38-10.18 221.38-8.38ZM247.87-1.66L247.87-1.66L247.87-47.30L247.87-47.30Q247.87-47.94 248.45-48.38L248.45-48.38L248.45-48.38Q249.02-48.83 249.92-48.83L249.92-48.83L249.92-48.83Q250.82-48.83 251.42-48.38L251.42-48.38L251.42-48.38Q252.03-47.94 252.03-47.30L252.03-47.30L252.03-1.66L252.03-1.66Q252.03-1.02 251.42-0.51L251.42-0.51L251.42-0.51Q250.82 0 249.92 0L249.92 0L249.92 0Q249.09 0 248.48-0.51L248.48-0.51L248.48-0.51Q247.87-1.02 247.87-1.66ZM261.12-1.66L261.12-1.66L261.12-47.30L261.12-47.30Q261.12-47.94 261.70-48.38L261.70-48.38L261.70-48.38Q262.27-48.83 263.17-48.83L263.17-48.83L263.17-48.83Q264.06-48.83 264.67-48.38L264.67-48.38L264.67-48.38Q265.28-47.94 265.28-47.30L265.28-47.30L265.28-1.66L265.28-1.66Q265.28-1.02 264.67-0.51L264.67-0.51L264.67-0.51Q264.06 0 263.17 0L263.17 0L263.17 0Q262.34 0 261.73-0.51L261.73-0.51L261.73-0.51Q261.12-1.02 261.12-1.66ZM272.70-11.71L272.70-11.71L272.70-18.88L272.70-18.88Q272.70-23.68 276.29-27.17L276.29-27.17L276.29-27.17Q279.87-30.66 284.93-30.66L284.93-30.66L284.93-30.66Q289.79-30.66 293.34-27.33L293.34-27.33L293.34-27.33Q296.90-24 296.90-19.01L296.90-19.01L296.90-19.01Q296.90-17.22 296.48-16.13L296.48-16.13L296.48-16.13Q296.06-15.04 295.14-14.59L295.14-14.59L295.14-14.59Q294.21-14.14 293.44-14.02L293.44-14.02L293.44-14.02Q292.67-13.89 291.33-13.89L291.33-13.89L276.86-13.89L276.86-11.52L276.86-11.52Q276.86-7.74 279.58-5.47L279.58-5.47L279.58-5.47Q282.30-3.20 286.59-3.20L286.59-3.20L286.59-3.20Q288.77-3.20 290.40-3.84L290.40-3.84L290.40-3.84Q292.03-4.48 292.90-5.12L292.90-5.12L292.90-5.12Q293.76-5.76 294.27-5.76L294.27-5.76L294.27-5.76Q294.98-5.76 295.52-5.09L295.52-5.09L295.52-5.09Q296.06-4.42 296.06-3.78L296.06-3.78L296.06-3.78Q296.06-2.43 293.31-0.99L293.31-0.99L293.31-0.99Q290.56 0.45 286.46 0.45L286.46 0.45L286.46 0.45Q280.38 0.45 276.54-2.91L276.54-2.91L276.54-2.91Q272.70-6.27 272.70-11.71ZM276.86-19.39L276.86-16.96L289.66-16.96L289.66-16.96Q291.58-16.96 292.22-17.38L292.22-17.38L292.22-17.38Q292.86-17.79 292.86-19.14L292.86-19.14L292.86-19.14Q292.86-22.34 290.59-24.77L290.59-24.77L290.59-24.77Q288.32-27.20 284.86-27.20L284.86-27.20L284.86-27.20Q281.54-27.20 279.20-24.90L279.20-24.90L279.20-24.90Q276.86-22.59 276.86-19.39L276.86-19.39ZM303.17-1.66L303.17-1.66L303.17-28.74L303.17-28.74Q303.17-29.38 303.74-29.82L303.74-29.82L303.74-29.82Q304.32-30.27 305.22-30.27L305.22-30.27L305.22-30.27Q306.05-30.27 306.62-29.82L306.62-29.82L306.62-29.82Q307.20-29.38 307.20-28.74L307.20-28.74L307.20-25.60L307.20-25.60Q308.35-27.71 310.59-29.18L310.59-29.18L310.59-29.18Q312.83-30.66 315.78-30.66L315.78-30.66L318.02-30.66L318.02-30.66Q318.66-30.66 319.17-30.08L319.17-30.08L319.17-30.08Q319.68-29.50 319.68-28.74L319.68-28.74L319.68-28.74Q319.68-27.97 319.17-27.39L319.17-27.39L319.17-27.39Q318.66-26.82 318.02-26.82L318.02-26.82L315.78-26.82L315.78-26.82Q312.45-26.82 309.89-24.22L309.89-24.22L309.89-24.22Q307.33-21.63 307.33-17.47L307.33-17.47L307.33-1.66L307.33-1.66Q307.33-1.02 306.72-0.51L306.72-0.51L306.72-0.51Q306.11 0 305.22 0L305.22 0L305.22 0Q304.38 0 303.78-0.51L303.78-0.51L303.78-0.51Q303.17-1.02 303.17-1.66Z"></path></g></g><style>text {
  font-size: 64px;
  font-family: Arial Black;
  dominant-baseline: central;
  text-anchor: middle;
}</style></svg>